<svg id="Menu_1_" xmlns="http://www.w3.org/2000/svg" width="36.152" height="18.076" viewBox="0 0 36.152 18.076">
  <path id="Path_17" data-name="Path 17" d="M1.13,98.5H35.022a1.13,1.13,0,1,0,0-2.259H1.13a1.13,1.13,0,1,0,0,2.259Z" transform="translate(0 -96.243)"/>
  <path id="Path_18" data-name="Path 18" d="M35.022,180.455H1.13a1.13,1.13,0,1,0,0,2.259H35.022a1.13,1.13,0,0,0,0-2.259Z" transform="translate(0 -172.547)"/>
  <path id="Path_19" data-name="Path 19" d="M144.028,264.667H121.433a1.13,1.13,0,1,0,0,2.259h22.595a1.13,1.13,0,1,0,0-2.259Z" transform="translate(-109.006 -248.851)"/>
</svg>
