<svg xmlns="http://www.w3.org/2000/svg" width="26.153" height="26.153" viewBox="0 0 26.153 26.153">
  <path id="comment-alt-dots-light" d="M22.884,0H3.269A3.272,3.272,0,0,0,0,3.269V17.98a3.272,3.272,0,0,0,3.269,3.269h4.9V25.54a.611.611,0,0,0,.613.613.587.587,0,0,0,.363-.123l6.38-4.781h7.356a3.272,3.272,0,0,0,3.269-3.269V3.269A3.272,3.272,0,0,0,22.884,0Zm1.635,17.98a1.639,1.639,0,0,1-1.635,1.635h-7.9l-.434.327L9.807,23.5V19.615H3.269A1.639,1.639,0,0,1,1.635,17.98V3.269A1.639,1.639,0,0,1,3.269,1.635H22.884a1.639,1.639,0,0,1,1.635,1.635ZM6.538,9.4a1.226,1.226,0,1,0,1.226,1.226A1.223,1.223,0,0,0,6.538,9.4Zm6.538,0A1.226,1.226,0,1,0,14.3,10.625,1.223,1.223,0,0,0,13.077,9.4Zm6.538,0a1.226,1.226,0,1,0,1.226,1.226A1.223,1.223,0,0,0,19.615,9.4Z" fill="#003b57"/>
</svg>
