<svg xmlns="http://www.w3.org/2000/svg" width="25.071" height="21.938" viewBox="0 0 25.071 21.938">
  <path id="heart-light_1_" data-name="heart-light (1)" d="M22.626,33.505a6.7,6.7,0,0,0-9.137.661l-.965,1-.965-.994c-2-2.066-6.028-3.31-9.137-.666a7.026,7.026,0,0,0-.485,10.176l9.475,9.784a1.541,1.541,0,0,0,1.107.475,1.521,1.521,0,0,0,1.107-.475L23.1,43.681A7.017,7.017,0,0,0,22.626,33.505Zm-.641,9.088-9.441,9.784-9.48-9.784A5.454,5.454,0,0,1,3.441,34.7c2.683-2.292,5.837-.632,6.993.563l2.091,2.159,2.091-2.159c1.136-1.175,4.319-2.84,6.993-.563a5.458,5.458,0,0,1,.377,7.894Z" transform="translate(0.012 -32.002)" fill="#ed4118"/>
</svg>
