<svg xmlns="http://www.w3.org/2000/svg" width="20.001" height="14" viewBox="0 0 20.001 14">
  <g id="gamepad-alt-duotone" transform="translate(-0.004 -32.022)">
    <path id="Path_195" data-name="Path 195" d="M19.961,42.529l-1.043-6.613a4.1,4.1,0,0,0-3.146-3.223h0a25.1,25.1,0,0,0-11.532,0,4.1,4.1,0,0,0-3.147,3.223L.048,42.529a3.057,3.057,0,0,0,3.128,3.493A3.6,3.6,0,0,0,6.6,43.69l.235-.668h6.344l.234.668a3.6,3.6,0,0,0,3.422,2.333,3.057,3.057,0,0,0,3.128-3.493ZM8.754,38.4a.375.375,0,0,1-.375.375H6.754V40.4a.375.375,0,0,1-.375.375h-.75a.375.375,0,0,1-.375-.375V38.772H3.629a.375.375,0,0,1-.375-.375v-.75a.375.375,0,0,1,.375-.375H5.254V35.647a.375.375,0,0,1,.375-.375h.75a.375.375,0,0,1,.375.375v1.625H8.379a.375.375,0,0,1,.375.375Zm4.75,2.375a1.25,1.25,0,1,1,1.25-1.25A1.25,1.25,0,0,1,13.5,40.772Zm2-3a1.25,1.25,0,1,1,1.25-1.25,1.25,1.25,0,0,1-1.25,1.25Z" transform="translate(0)" fill="#00a0e9" opacity="0.4"/>
    <path id="Path_196" data-name="Path 196" d="M109.5,139.125a.375.375,0,0,1-.375.375H107.5v1.625a.375.375,0,0,1-.375.375h-.75a.375.375,0,0,1-.375-.375V139.5h-1.625a.375.375,0,0,1-.375-.375v-.75a.375.375,0,0,1,.375-.375H106v-1.625a.375.375,0,0,1,.375-.375h.75a.375.375,0,0,1,.375.375V138h1.625a.375.375,0,0,1,.375.375Z" transform="translate(-100.746 -100.728)" fill="#00a0e9"/>
  </g>
</svg>
