<svg xmlns="http://www.w3.org/2000/svg" width="23.903" height="21.247" viewBox="0 0 23.903 21.247">
  <g id="trophy-alt-duotone" transform="translate(0 0)">
    <path id="Path_179" data-name="Path 179" d="M132.279,69.052l-.39,2.266a.5.5,0,0,0,.722.523l2.033-1.071,2.033,1.071a.5.5,0,0,0,.722-.523l-.39-2.266,1.643-1.6a.5.5,0,0,0-.266-.851l-2.274-.332L135.1,64.209a.5.5,0,0,0-.892,0l-1.017,2.058-2.274.332a.5.5,0,0,0-.278.851Zm6.345,10.155h-7.968A2.4,2.4,0,0,0,128,81.531v.5a.5.5,0,0,0,.5.5h12.284a.5.5,0,0,0,.5-.5v-.5A2.4,2.4,0,0,0,138.624,79.207Z" transform="translate(-122.688 -61.28)" fill="#fff" opacity="0.4"/>
    <path id="Path_180" data-name="Path 180" d="M22.912,2.656H18.591V1A.993.993,0,0,0,17.6,0H6.308a.993.993,0,0,0-1,.991V2.656H1a.993.993,0,0,0-1,.991V5.976c0,2.76,3.233,5.465,7.134,5.909A9.179,9.179,0,0,0,9.96,14.939v2.988h3.984V14.939a9.179,9.179,0,0,0,2.826-3.054c3.913-.448,7.134-3.158,7.134-5.909V3.652a.993.993,0,0,0-.991-1ZM2.656,5.976V5.312H5.32a14.9,14.9,0,0,0,.531,3.577C3.88,8.208,2.656,6.818,2.656,5.976Zm13.309.2-1.643,1.6.39,2.266a.5.5,0,0,1-.722.523L11.956,9.491,9.922,10.561a.5.5,0,0,1-.722-.523l.39-2.266-1.643-1.6a.5.5,0,0,1,.278-.851L10.5,4.988,11.516,2.93a.5.5,0,0,1,.892,0l1.017,2.058L15.7,5.32a.5.5,0,0,1,.266.851Zm5.283-.2c0,.838-1.22,2.233-3.2,2.913a14.9,14.9,0,0,0,.531-3.577h2.664Z" fill="#fff"/>
  </g>
</svg>
