<svg xmlns="http://www.w3.org/2000/svg" width="19.624" height="11.774" viewBox="0 0 19.624 11.774">
  <path id="money-bill-regular" d="M18.643,64H.981A.981.981,0,0,0,0,64.981v9.812a.981.981,0,0,0,.981.981H18.643a.981.981,0,0,0,.981-.981V64.981A.981.981,0,0,0,18.643,64Zm-.491,8.34A1.962,1.962,0,0,0,16.19,74.3H3.434A1.962,1.962,0,0,0,1.472,72.34V67.434a1.962,1.962,0,0,0,1.962-1.962H16.19a1.962,1.962,0,0,0,1.962,1.962Zm-8.34-5.4a2.993,2.993,0,0,0,0,5.887,2.993,2.993,0,0,0,0-5.887Z" transform="translate(0 -64)" fill="#afddfa"/>
</svg>
