<svg id="curling-duotone_1_" data-name="curling-duotone (1)" xmlns="http://www.w3.org/2000/svg" width="20.914" height="16.731" viewBox="0 0 20.914 16.731">
  <path id="Path_246" data-name="Path 246" d="M0,245.751a3.137,3.137,0,0,0,3.137,3.137h14.64a3.137,3.137,0,0,0,3.137-3.137v-1.046H0ZM17.777,240H3.137A3.137,3.137,0,0,0,0,243.137v.523H20.914v-.523A3.137,3.137,0,0,0,17.777,240Z" transform="translate(0 -232.157)" fill="#00a0e9" opacity="0.4"/>
  <path id="Path_247" data-name="Path 247" d="M101.2,6.274H85.9a3.128,3.128,0,0,1,2.944-2.091h1.569V3.66A3.658,3.658,0,0,1,94.073,0h4.183a.523.523,0,0,1,.523.523V1.569a.523.523,0,0,1-.523.523c-3.846,0-5.751-.373-5.751,1.569v.523h5.751A3.128,3.128,0,0,1,101.2,6.274Z" transform="translate(-83.093 0)" fill="#00a0e9"/>
</svg>
