<svg id="boxing-glove-duotone" xmlns="http://www.w3.org/2000/svg" width="15.549" height="17.768" viewBox="0 0 15.549 17.768">
  <path id="Path_193" data-name="Path 193" d="M43.105,400v2.776a1.111,1.111,0,0,1-1.111,1.111H33.111A1.111,1.111,0,0,1,32,402.776V400h4.626l-1.406,1.055a.281.281,0,0,0-.056.389l.333.444a.278.278,0,0,0,.389.056l1.666-1.249,1.666,1.249a.278.278,0,0,0,.389-.056l.333-.444a.28.28,0,0,0-.056-.389L38.479,400Z" transform="translate(-30.889 -386.118)" fill="#00a0e9" opacity="0.4"/>
  <path id="Path_194" data-name="Path 194" d="M.548,9.95A40.3,40.3,0,0,1,0,3.328,3.341,3.341,0,0,1,3.332,0H9.995a3.332,3.332,0,0,1,3.332,3.332V4.449c-1.01,0-2.346-.194-3.332,1.128V5.56H4.9a3.221,3.221,0,0,1-2.1-.774.278.278,0,0,0-.378.014l-.392.392a.278.278,0,0,0,.014.406A4.319,4.319,0,0,0,4.9,6.667H9.5a2.925,2.925,0,0,0-.056.555,2.78,2.78,0,0,0,2.471,2.759.278.278,0,0,0,.305-.278V9.148a.284.284,0,0,0-.239-.281,1.662,1.662,0,0,1-1.426-1.68,1.684,1.684,0,0,1,1.694-1.635h1.079a2.223,2.223,0,0,1,2.221,2.221,4.608,4.608,0,0,1-1.3,3.522l-2.03,2.03v.555H7.59L9,12.827a.281.281,0,0,0,.056-.389l-.333-.444a.278.278,0,0,0-.389-.056L6.663,13.188,5,11.938a.278.278,0,0,0-.389.056l-.333.444a.278.278,0,0,0,.056.389l1.406,1.055H1.111v-.555Z" fill="#00a0e9"/>
</svg>
