<svg xmlns="http://www.w3.org/2000/svg" width="24.291" height="21.592" viewBox="0 0 24.291 21.592">
  <g id="trophy-alt-duotone_1_" data-name="trophy-alt-duotone (1)" transform="translate(0 0)">
    <path id="Path_270" data-name="Path 270" d="M132.348,69.135l-.4,2.3a.506.506,0,0,0,.734.531l2.066-1.088,2.066,1.088a.506.506,0,0,0,.734-.531l-.4-2.3,1.67-1.628a.508.508,0,0,0-.27-.865l-2.311-.337-1.033-2.092a.506.506,0,0,0-.907,0l-1.033,2.092-2.311.337a.506.506,0,0,0-.283.865ZM138.8,79.455h-8.1a2.434,2.434,0,0,0-2.7,2.362v.506a.506.506,0,0,0,.506.506h12.483a.506.506,0,0,0,.506-.506v-.506A2.434,2.434,0,0,0,138.8,79.455Z" transform="translate(-122.602 -61.237)" fill="#00a0e9" opacity="0.4"/>
    <path id="Path_271" data-name="Path 271" d="M23.284,2.7H18.893V1.012A1.01,1.01,0,0,0,17.886,0H6.41A1.01,1.01,0,0,0,5.4,1.007V2.7H1.012A1.01,1.01,0,0,0,0,3.706V6.073c0,2.8,3.285,5.554,7.249,6.005a9.328,9.328,0,0,0,2.872,3.1v3.036H14.17V15.182a9.328,9.328,0,0,0,2.872-3.1c3.977-.455,7.249-3.209,7.249-6.005V3.711A1.01,1.01,0,0,0,23.284,2.7ZM2.7,6.073V5.4H5.406a15.14,15.14,0,0,0,.54,3.635C3.943,8.341,2.7,6.929,2.7,6.073Zm13.524.2L14.553,7.9l.4,2.3a.506.506,0,0,1-.734.531L12.15,9.645l-2.066,1.088a.506.506,0,0,1-.734-.531l.4-2.3L8.076,6.271a.506.506,0,0,1,.283-.865l2.311-.337L11.7,2.977a.506.506,0,0,1,.907,0l1.033,2.092,2.311.337a.508.508,0,0,1,.27.865Zm5.368-.2c0,.852-1.24,2.269-3.247,2.96a15.14,15.14,0,0,0,.54-3.635h2.707Z" fill="#00a0e9"/>
  </g>
</svg>
