<svg xmlns="http://www.w3.org/2000/svg" width="19.689" height="15.752" viewBox="0 0 19.689 15.752">
  <g id="hockey-sticks-duotone_2_" data-name="hockey-sticks-duotone (2)" transform="translate(0 0.008)">
    <path id="Path_213" data-name="Path 213" d="M69.219.267v0a.492.492,0,0,0-.661-.22L66.8.924a.5.5,0,0,0-.222.661l3.651,7.291,1.651-3.3ZM81.228,10.822H79.752v4.922h1.477a.492.492,0,0,0,.492-.492V11.314A.492.492,0,0,0,81.228,10.822Zm-6.861-.271-.839-1.675-1.653,3.3,1.243,2.481a1.985,1.985,0,0,0,1.772,1.089h3.876V10.822H74.829a.527.527,0,0,1-.463-.271ZM64,15.744h.984V10.822H64Z" transform="translate(-62.031 0)" fill="#00a0e9" opacity="0.4"/>
    <path id="Path_214" data-name="Path 214" d="M14.925.924,13.163.044a.492.492,0,0,0-.661.22v0L7.355,10.551a.526.526,0,0,1-.463.271H2.953v4.922H6.83A1.985,1.985,0,0,0,8.6,14.655L15.147,1.586a.5.5,0,0,0-.222-.661ZM0,11.314v3.938a.492.492,0,0,0,.492.492H1.969V10.822H.492A.492.492,0,0,0,0,11.314Zm16.736-.492v4.922h.984V10.822Z" transform="translate(0 0)" fill="#00a0e9"/>
  </g>
</svg>
