<svg xmlns="http://www.w3.org/2000/svg" width="20.592" height="16.472" viewBox="0 0 20.592 16.472">
  <g id="racquet-duotone" transform="translate(-0.043 0)">
    <path id="Path_207" data-name="Path 207" d="M.256,75.811a.518.518,0,0,0-.117.717l1.184,1.667a.515.515,0,0,0,.714.125L5.92,75.663,4.1,73.089S.259,75.814.256,75.811ZM15.678,64A7.067,7.067,0,0,0,9.4,68.54c-.685,2.13.428,3.629,2.7,3.629a7.081,7.081,0,0,0,6.274-4.54C19.06,65.5,17.947,64,15.678,64Z" transform="translate(0 -61.941)" fill="#00a0e9" opacity="0.4"/>
    <path id="Path_208" data-name="Path 208" d="M172.382,1.924c-1.776-2.506-5.884-2.538-9.118-.248a8.41,8.41,0,0,0-3.436,4.861,9.875,9.875,0,0,1-2.178,4.269l1.47,2.075a11.146,11.146,0,0,1,5.53-.6,8.685,8.685,0,0,0,4.938-1.673C172.879,8.281,174.129,4.392,172.382,1.924Zm-13.043,9.24a11.435,11.435,0,0,0,.843-1.319,2.692,2.692,0,0,0,.682.956,12.2,12.2,0,0,0-1.525.364Zm11.572-5.476a7.081,7.081,0,0,1-6.274,4.54c-2.271,0-3.385-1.5-2.7-3.629a7.068,7.068,0,0,1,6.275-4.54c2.27,0,3.383,1.5,2.7,3.629Z" transform="translate(-152.536 0)" fill="#00a0e9"/>
  </g>
</svg>
