<svg xmlns="http://www.w3.org/2000/svg" width="18.846" height="18.846" viewBox="0 0 18.846 18.846">
  <path id="gavel-regular" d="M18.329,6.5l-.853-.853a1.769,1.769,0,0,0-1.856-.41L13.609,3.227a1.769,1.769,0,0,0-.41-1.856L12.346.518a1.766,1.766,0,0,0-2.5,0L6.033,4.331a1.769,1.769,0,0,0,0,2.5l.853.853a1.769,1.769,0,0,0,1.856.41l.381.381-2.081,2.08a1.769,1.769,0,0,0-2.558-.059L.518,14.462a1.766,1.766,0,0,0,0,2.5l1.368,1.368a1.769,1.769,0,0,0,2.5,0l3.967-3.968A1.768,1.768,0,0,0,8.292,11.8l2.081-2.08.381.381a1.769,1.769,0,0,0,.41,1.856l.936.936a1.652,1.652,0,0,0,2.334,0l3.9-3.9A1.769,1.769,0,0,0,18.329,6.5ZM3.136,17.08h0L1.767,15.711l3.967-3.968L7.1,13.112Zm10.13-5.517-.853-.853.544-.544L8.681,5.889l-.544.544L7.283,5.58,11.1,1.767l.853.853-.619.619,4.277,4.277.619-.619.853.853-3.814,3.814Z" transform="translate(0 0)" fill="#afddfa"/>
</svg>
