<svg xmlns="http://www.w3.org/2000/svg" width="16.934" height="16.932" viewBox="0 0 16.934 16.932">
  <g id="futbol-duotone" transform="translate(-8 -8.003)">
    <path id="Path_211" data-name="Path 211" d="M23.283,25.292v0Zm1.771,5.454a8.422,8.422,0,0,1-1.464,4.5l-.244-1.074-3.738.458-1.594,3.417.933.557,0,.008a8.5,8.5,0,0,1-4.713,0v-.008l.934-.556-1.594-3.417-3.739-.459-.244,1.074a8.422,8.422,0,0,1-1.463-4.5l.825.72L11.707,28.9,11,25.195l-1.1.1a8.483,8.483,0,0,1,3.811-2.774l.012.009-.423.994,3.291,1.823,3.291-1.823-.432-1.01a8.487,8.487,0,0,1,3.832,2.782l-1.082-.1-.722,3.7,2.752,2.569Zm-5.037-1.221-3.425-2.481-3.425,2.481,1.313,4.009h4.236Z" transform="translate(-0.126 -14.012)" fill="#fff" opacity="0.4"/>
    <path id="Path_212" data-name="Path 212" d="M19.757,9.509,19.325,8.5a8.5,8.5,0,0,0-5.718,0l-.432,1.01,3.291,1.823ZM18.59,19.524l1.3-4.01-3.425-2.481-3.425,2.481,1.313,4.009Zm-7.72-8.341-1.1.1A8.429,8.429,0,0,0,8,16.469c0,.089,0,.178,0,.267l.825.72,2.752-2.569Zm8.612,9.437-1.594,3.417.945.562a8.481,8.481,0,0,0,4.631-3.364l-.244-1.074Zm-9.77-.458-.244,1.074A8.481,8.481,0,0,0,14.1,24.6l.945-.562L13.45,20.62ZM23.157,11.28l-1.082-.1-.722,3.7L24.1,17.456l.825-.72c0-.089,0-.178,0-.267a8.429,8.429,0,0,0-1.777-5.189Z" fill="#fff"/>
  </g>
</svg>
